<svg width="502.53125px" height="122px" xmlns="http://www.w3.org/2000/svg" viewBox="-1.265625 14 502.53125 122" style="background: rgba(0, 0, 0, 0);" preserveAspectRatio="xMidYMid"><defs><filter id="editing-raise" x="-100%" y="-100%" width="300%" height="300%"><feFlood flood-color="#000000" result="flood-surface"></feFlood><feFlood flood-color="#777777" result="flood-extrude"></feFlood><feMorphology operator="erode" in="SourceAlpha" radius="1" result="erode"></feMorphology><feConvolveMatrix in="erode" result="shadow" order="11,8" divisor="1" kernelMatrix="0 0 0 1 1 1 1 1 0 0 0 0 0 1 0 0 0 0 0 1 0 0 0 0 1 0 0 0 0 0 1 0 0 0 0 1 0 0 0 0 0 1 0 0 0 0 1 0 0 0 0 0 1 0 0 0 0 0 1 0 0 0 1 0 0 0 0 0 0 1 1 0 1 1 0 0 0 0 0 0 0 0 1 0 0 0 0 0"></feConvolveMatrix><feOffset dx="0" dy="4" in="shadow" result="offset"></feOffset><feGaussianBlur in="offset" stdDeviation="0.2" result="blur"></feGaussianBlur><feComposite operator="in" in="flood-extrude" in2="blur" result="extrude"></feComposite><feMorphology operator="erode" in="SourceAlpha" radius="1" result="erode2"></feMorphology><feConvolveMatrix in="erode2" result="out" order="4,4" divisor="1" kernelMatrix="0 1 1 0 1 0 0 1 1 0 0 1 0 1 1 0 "></feConvolveMatrix><feComposite operator="in" in="flood-surface" in2="out" result="text"></feComposite><feMerge><feMergeNode in="extrude"></feMergeNode><feMergeNode in="text"></feMergeNode></feMerge></filter></defs><g filter="url(#editing-raise)"><g transform="translate(72.9099853336811, 97.39999961853027)"><path d="M26.11-42.69L26.11-42.69L26.11-42.69Q41.79-42.69 41.79-31.62L41.79-31.62L41.79-31.62Q41.79-25.54 37.89-21.89L37.89-21.89L37.89-21.89Q34.05-18.24 27.33-18.24L27.33-18.24L27.33-18.24Q24.19-18.24 21.76-20.03L21.76-20.03L21.76-20.03Q20.61-20.80 19.84-21.82L19.84-21.82L19.84-21.82Q24.51-21.82 26.98-24.67L26.98-24.67L26.98-24.67Q29.44-27.52 29.44-33.09L29.44-33.09L29.44-33.09Q29.44-38.66 23.94-38.66L23.94-38.66L22.40-38.66L22.40-38.66Q22.02-38.66 21.70-38.59L21.70-38.59L14.34 0L0.45 0L8.32-41.92L8.32-41.92Q15.17-42.56 19.14-42.62L19.14-42.62L19.14-42.62Q23.10-42.69 26.11-42.69ZM68.03-10.82L68.03-10.82L68.03-10.82Q69.63-9.73 69.63-7.33L69.63-7.33L69.63-7.33Q69.63-4.93 68.42-3.39L68.42-3.39L68.42-3.39Q67.20-1.86 65.22-0.83L65.22-0.83L65.22-0.83Q61.12 1.28 56.70 1.28L56.70 1.28L56.70 1.28Q52.29 1.28 49.70 0.32L49.70 0.32L49.70 0.32Q47.10-0.64 45.38-2.43L45.38-2.43L45.38-2.43Q41.98-5.82 41.98-12.03L41.98-12.03L41.98-12.03Q41.98-21.70 47.23-27.58L47.23-27.58L47.23-27.58Q52.86-33.92 62.66-33.92L62.66-33.92L62.66-33.92Q68.74-33.92 71.74-31.36L71.74-31.36L71.74-31.36Q73.98-29.44 73.98-26.30L73.98-26.30L73.98-26.30Q73.98-15.04 54.53-15.04L54.53-15.04L54.53-15.04Q54.27-13.38 54.27-11.97L54.27-11.97L54.27-11.97Q54.27-9.02 55.58-7.90L55.58-7.90L55.58-7.90Q56.90-6.78 59.33-6.78L59.33-6.78L59.33-6.78Q61.76-6.78 64.35-7.90L64.35-7.90L64.35-7.90Q66.94-9.02 68.03-10.82ZM54.98-17.79L54.98-17.79L54.98-17.79Q59.52-17.79 62.14-20.61L62.14-20.61L62.14-20.61Q64.77-23.30 64.77-27.58L64.77-27.58L64.77-27.58Q64.77-29.06 64.22-29.86L64.22-29.86L64.22-29.86Q63.68-30.66 62.59-30.66L62.59-30.66L62.59-30.66Q61.50-30.66 60.58-30.24L60.58-30.24L60.58-30.24Q59.65-29.82 58.69-28.42L58.69-28.42L58.69-28.42Q56.32-25.22 54.98-17.79ZM77.18-6.40L77.18-6.40L77.18-6.40Q77.18-8.13 78.08-12.48L78.08-12.48L81.47-29.76L77.70-29.76L77.95-31.68L77.95-31.68Q85.63-33.98 93.06-39.62L93.06-39.62L96.13-39.62L94.59-32.64L99.58-32.64L99.01-29.76L94.08-29.76L90.82-12.48L90.82-12.48Q89.98-8.51 89.98-7.17L89.98-7.17L89.98-7.17Q89.98-4.10 92.67-3.46L92.67-3.46L92.67-3.46Q92.03-1.28 89.73 0L89.73 0L89.73 0Q87.42 1.28 84.16 1.28L84.16 1.28L84.16 1.28Q80.90 1.28 79.04-0.77L79.04-0.77L79.04-0.77Q77.18-2.82 77.18-6.40ZM114.05-39.68L114.05-39.68L114.05-39.68Q115.90-43.52 121.06-43.52L121.06-43.52L121.06-43.52Q126.21-43.52 128.61-40.54L128.61-40.54L128.61-40.54Q131.01-37.57 131.01-30.72L131.01-30.72L131.01-7.87L146.56-42.18L154.18-42.18L134.27 0L119.30 0L117.38-30.72L117.38-30.72Q117.18-34.11 116.26-36.42L116.26-36.42L116.26-36.42Q115.33-38.72 114.05-39.68ZM176.51-10.82L176.51-10.82L176.51-10.82Q178.11-9.73 178.11-7.33L178.11-7.33L178.11-7.33Q178.11-4.93 176.90-3.39L176.90-3.39L176.90-3.39Q175.68-1.86 173.70-0.83L173.70-0.83L173.70-0.83Q169.60 1.28 165.18 1.28L165.18 1.28L165.18 1.28Q160.77 1.28 158.18 0.32L158.18 0.32L158.18 0.32Q155.58-0.64 153.86-2.43L153.86-2.43L153.86-2.43Q150.46-5.82 150.46-12.03L150.46-12.03L150.46-12.03Q150.46-21.70 155.71-27.58L155.71-27.58L155.71-27.58Q161.34-33.92 171.14-33.92L171.14-33.92L171.14-33.92Q177.22-33.92 180.22-31.36L180.22-31.36L180.22-31.36Q182.46-29.44 182.46-26.30L182.46-26.30L182.46-26.30Q182.46-15.04 163.01-15.04L163.01-15.04L163.01-15.04Q162.75-13.38 162.75-11.97L162.75-11.97L162.75-11.97Q162.75-9.02 164.06-7.90L164.06-7.90L164.06-7.90Q165.38-6.78 167.81-6.78L167.81-6.78L167.81-6.78Q170.24-6.78 172.83-7.90L172.83-7.90L172.83-7.90Q175.42-9.02 176.51-10.82ZM163.46-17.79L163.46-17.79L163.46-17.79Q168-17.79 170.62-20.61L170.62-20.61L170.62-20.61Q173.25-23.30 173.25-27.58L173.25-27.58L173.25-27.58Q173.25-29.06 172.70-29.86L172.70-29.86L172.70-29.86Q172.16-30.66 171.07-30.66L171.07-30.66L171.07-30.66Q169.98-30.66 169.06-30.24L169.06-30.24L169.06-30.24Q168.13-29.82 167.17-28.42L167.17-28.42L167.17-28.42Q164.80-25.22 163.46-17.79ZM211.71 1.28L211.71 1.28L211.71 1.28Q203.97 1.28 203.97-4.74L203.97-4.74L203.97-4.74Q204.03-6.40 204.54-9.22L204.54-9.22L205.70-15.10L205.70-15.10Q207.42-23.42 207.42-25.28L207.42-25.28L207.42-25.28Q207.42-28.99 205.25-28.99L205.25-28.99L205.25-28.99Q201.60-28.99 199.68-19.46L199.68-19.46L195.90 0L183.04 1.28L189.70-32.70L200.19-33.92L199.17-27.65L199.17-27.65Q202.18-33.92 211.39-33.92L211.39-33.92L211.39-33.92Q215.87-33.92 217.76-32.03L217.76-32.03L217.76-32.03Q219.65-30.14 219.65-25.92L219.65-25.92L219.65-25.92Q219.65-21.95 217.60-12.67L217.60-12.67L217.60-12.67Q216.64-8.51 216.64-6.94L216.64-6.94L216.64-6.94Q216.64-5.38 217.50-4.48L217.50-4.48L217.50-4.48Q218.37-3.58 219.65-3.46L219.65-3.46L219.65-3.46Q219.01-1.28 216.80 0L216.80 0L216.80 0Q214.59 1.28 211.71 1.28ZM225.79-6.40L225.79-6.40L225.79-6.40Q225.79-8.13 226.69-12.48L226.69-12.48L230.08-29.76L226.30-29.76L226.56-31.68L226.56-31.68Q234.24-33.98 241.66-39.62L241.66-39.62L244.74-39.62L243.20-32.64L248.19-32.64L247.62-29.76L242.69-29.76L239.42-12.48L239.42-12.48Q238.59-8.51 238.59-7.17L238.59-7.17L238.59-7.17Q238.59-4.10 241.28-3.46L241.28-3.46L241.28-3.46Q240.64-1.28 238.34 0L238.34 0L238.34 0Q236.03 1.28 232.77 1.28L232.77 1.28L232.77 1.28Q229.50 1.28 227.65-0.77L227.65-0.77L227.65-0.77Q225.79-2.82 225.79-6.40ZM268.42-2.69L268.42-2.69L268.42-2.69Q265.34 1.28 257.73 1.28L257.73 1.28L257.73 1.28Q253.76 1.28 250.88-1.12L250.88-1.12L250.88-1.12Q248-3.52 248-6.98L248-6.98L248-6.98Q248-8.90 248.19-9.86L248.19-9.86L252.48-32.64L265.47-33.92L260.80-9.22L260.80-9.22Q260.54-7.81 260.54-6.98L260.54-6.98L260.54-6.98Q260.54-3.26 262.78-3.26L262.78-3.26L262.78-3.26Q265.28-3.26 267.07-6.66L267.07-6.66L267.07-6.66Q267.65-7.74 267.90-9.15L267.90-9.15L272.45-32.64L285.06-33.92L280.32-8.96L280.32-8.96Q280.13-8 280.13-6.98L280.13-6.98L280.13-6.98Q280.13-5.95 280.70-4.83L280.70-4.83L280.70-4.83Q281.28-3.71 283.14-3.46L283.14-3.46L283.14-3.46Q282.75-1.92 281.41-0.90L281.41-0.90L281.41-0.90Q278.59 1.28 275.55 1.28L275.55 1.28L275.55 1.28Q272.51 1.28 270.72 0.19L270.72 0.19L270.72 0.19Q268.93-0.90 268.42-2.69ZM308.54-17.98L308.54-17.98L308.54-17.98Q310.85-22.08 310.85-26.24L310.85-26.24L310.85-26.24Q310.85-28.99 308.86-28.99L308.86-28.99L308.86-28.99Q307.33-28.99 305.73-26.37L305.73-26.37L305.73-26.37Q304.06-23.74 303.55-20.35L303.55-20.35L300.22 0L286.98 1.28L293.50-32.64L304.06-33.92L302.91-27.46L302.91-27.46Q306.05-33.92 313.09-33.92L313.09-33.92L313.09-33.92Q316.80-33.92 318.82-32L318.82-32L318.82-32Q320.83-30.08 320.83-26.14L320.83-26.14L320.83-26.14Q320.83-22.21 318.24-19.71L318.24-19.71L318.24-19.71Q315.65-17.22 311.23-17.22L311.23-17.22L311.23-17.22Q309.31-17.22 308.54-17.98ZM347.78-10.82L347.78-10.82L347.78-10.82Q349.38-9.73 349.38-7.33L349.38-7.33L349.38-7.33Q349.38-4.93 348.16-3.39L348.16-3.39L348.16-3.39Q346.94-1.86 344.96-0.83L344.96-0.83L344.96-0.83Q340.86 1.28 336.45 1.28L336.45 1.28L336.45 1.28Q332.03 1.28 329.44 0.32L329.44 0.32L329.44 0.32Q326.85-0.64 325.12-2.43L325.12-2.43L325.12-2.43Q321.73-5.82 321.73-12.03L321.73-12.03L321.73-12.03Q321.73-21.70 326.98-27.58L326.98-27.58L326.98-27.58Q332.61-33.92 342.40-33.92L342.40-33.92L342.40-33.92Q348.48-33.92 351.49-31.36L351.49-31.36L351.49-31.36Q353.73-29.44 353.73-26.30L353.73-26.30L353.73-26.30Q353.73-15.04 334.27-15.04L334.27-15.04L334.27-15.04Q334.02-13.38 334.02-11.97L334.02-11.97L334.02-11.97Q334.02-9.02 335.33-7.90L335.33-7.90L335.33-7.90Q336.64-6.78 339.07-6.78L339.07-6.78L339.07-6.78Q341.50-6.78 344.10-7.90L344.10-7.90L344.10-7.90Q346.69-9.02 347.78-10.82ZM334.72-17.79L334.72-17.79L334.72-17.79Q339.26-17.79 341.89-20.61L341.89-20.61L341.89-20.61Q344.51-23.30 344.51-27.58L344.51-27.58L344.51-27.58Q344.51-29.06 343.97-29.86L343.97-29.86L343.97-29.86Q343.42-30.66 342.34-30.66L342.34-30.66L342.34-30.66Q341.25-30.66 340.32-30.24L340.32-30.24L340.32-30.24Q339.39-29.82 338.43-28.42L338.43-28.42L338.43-28.42Q336.06-25.22 334.72-17.79Z"></path></g></g><style>text {
  font-size: 64px;
  font-family: Arial Black;
  dominant-baseline: central;
  text-anchor: middle;
}</style></svg>